<svg id="mainMap" width="8.6110cm" height="7.3200cm" viewBox="0 0 86.1100 73.2000" style="fill:none;stroke-width:0;fill-rule:evenodd" xmlns="http://www.w3.org/2000/svg">
<desc>Map</desc>
<g id="scaleTransform" transform="scale(1.00000000)">
<g id="mainMapContent">
<rect id="mapBg" x="-100%" y="-100%" width="200%" height="200%" fill="none" />
<g>
<clipPath id="Clip" fill="none" stroke="none">
<rect x="0" y="0" width="86.1100" height="73.2000" fill="none" />
</clipPath>
<g clip-path="url(#Clip)">
<g opacity="1.00">
<g id="Sym_730.000_Col_201">
<g stroke="rgb(204,0,0)">
<g fill="rgb(204,0,0)" >
<path 
d="M14.17,65.48
C20.31,57.12 27.24,50.26 34.23,44.55
C47.77,59.94 57.36,63.37 58.76,63.90
C56.80,64.91 54.62,65.88 52.21,66.78
C34.69,73.37 20.49,68.52 14.17,65.48
" />
</g>
<g fill="rgb(204,0,0)" >
<path 
d="M63.17,25.08
63.69,25.31 
C63.69,25.31 53.66,29.70 40.93,39.06
C49.09,48.62 53.36,52.96 66.20,59.06
C66.20,59.06 66.18,59.09 66.15,59.11
C76.50,50.54 75.80,40.36 72.74,33.99
C70.36,29.06 66.21,26.43 63.17,25.08
" />
</g>
<g fill="rgb(204,0,0)" >
<path 
d="M23.67,13.27
23.47,13.44 
C23.47,13.44 27.57,22.16 34.83,31.56
C41.28,27.11 49.06,22.99 58.75,20.03
C57.26,14.79 53.83,10.19 53.83,10.19
C53.83,10.19 43.75,-3.03 23.67,13.27
" />
</g>
<g fill="rgb(204,0,0)" >
<path 
d="M9.24,59.63
9.14,59.27 
C9.14,59.27 14.74,48.08 28.02,37.05
C18.36,24.84 17.27,20.85 17.08,19.52
C3.87,34.58 6.95,52.03 9.24,59.63
" />
</g>
</g>
</g>
</g>
<g opacity="1.00">
<g id="Sym_202.000_Col_101">
<g stroke="rgb(255,255,255)">
<g fill="rgb(255,255,255)" >
<path 
d="M75.03,35.81
C75.03,35.81 85.38,25.45 75.42,12.33
C65.46,-0.79 50.74,5.50 50.74,5.50
C50.74,5.50 58.45,9.61 60.64,22.75
C60.64,22.75 71.05,24.46 75.03,35.81
" />
</g>
</g>
</g>
</g>
</g>
</g>
</g>
</g>
</svg>
